<svg width="86" height="89" fill="none" xmlns="http://www.w3.org/2000/svg"><circle cx="43" cy="46" r="42" stroke="#D3AB75" stroke-width="2"/><circle cx="43" cy="4" r="4" fill="#D3AB75"/><g clip-path="url(#clip0)"><path d="M52.202 36.135h-21.52c-.938 0-1.682.788-1.682 1.72v13.234a1.667 1.667 0 0 0 1.683 1.645h.87V41.941c0-1.765 1.443-3.177 3.208-3.177h19.108v-.91c0-.93-.729-1.72-1.667-1.72z" fill="#174862"/><path d="M56.288 40.266H34.76a1.688 1.688 0 0 0-1.705 1.675v1.104H58V41.94c0-.94-.774-1.675-1.712-1.675zm1.704 4.281H33.056V46.5h24.937v-1.953zm-24.936 3.455v7.143c0 .947.759 1.713 1.705 1.72H56.28a1.728 1.728 0 0 0 1.712-1.72v-7.143H33.056zm22.976 6.114a2.718 2.718 0 0 1-3.77.729 2.679 2.679 0 0 1-1.518.465 2.717 2.717 0 0 1-2.711-2.719 2.71 2.71 0 0 1 4.229-2.245 2.708 2.708 0 0 1 3.042 0 2.718 2.718 0 0 1 .728 3.77z" fill="#082534"/><path d="M56.032 54.116a2.718 2.718 0 0 1-3.77.729 2.679 2.679 0 0 1-1.518.465 2.717 2.717 0 0 1-2.711-2.719 2.71 2.71 0 0 1 4.229-2.245 2.708 2.708 0 0 1 3.042 0 2.718 2.718 0 0 1 .728 3.77z" fill="#082534"/></g><defs><clipPath id="clip0"><path fill="#fff" transform="translate(29 32)" d="M0 0h29v29H0z"/></clipPath></defs></svg>