<svg width="86" height="89" fill="none" xmlns="http://www.w3.org/2000/svg"><circle cx="43" cy="46" r="42" stroke="#D3AB75" stroke-width="2"/><circle cx="43" cy="4" r="4" fill="#D3AB75"/><g clip-path="url(#clip0)"><path d="M43.5 41.19c-2.93 0-5.31 2.38-5.31 5.31 0 2.93 2.38 5.31 5.31 5.31 2.93 0 5.31-2.38 5.31-5.31 0-2.93-2.38-5.31-5.31-5.31zm-.403 3.735c-.66 0-1.209.55-1.209 1.209H40.13c.037-1.648 1.356-2.967 2.967-2.967v1.758z" fill="#174862"/><path d="M59.615 45.401c-1.794-2.234-8.204-9.523-16.115-9.523-7.911 0-14.32 7.289-16.115 9.523-.513.623-.513 1.538 0 2.198 1.794 2.234 8.204 9.523 16.115 9.523 7.911 0 14.32-7.29 16.115-9.523.513-.623.513-1.539 0-2.198zM43.5 54.191a7.69 7.69 0 0 1-7.691-7.691 7.69 7.69 0 0 1 7.691-7.691 7.69 7.69 0 0 1 7.691 7.691 7.69 7.69 0 0 1-7.691 7.691z" fill="#082534"/></g><defs><clipPath id="clip0"><path fill="#fff" transform="translate(27 30)" d="M0 0h33v33H0z"/></clipPath></defs></svg>