<svg width="96" height="66" fill="none" xmlns="http://www.w3.org/2000/svg"><path d="M70.769 14.637c1.173 0 1.908-.714 1.927-1.985v-1.65h-1.955v.834h1.033v.816c0 .743-.372 1.086-.996 1.086-.605 0-.978-.343-.978-1.132V9.972c0-.789.354-1.132.95-1.132s.931.325.969 1.076h.93c-.046-1.28-.744-1.976-1.899-1.976-1.182 0-1.909.705-1.909 2.022v2.644c0 1.317.755 2.031 1.928 2.031zm5.736-.101h1.043l-1.416-2.487c.745-.269 1.174-.964 1.174-1.975 0-1.29-.708-2.032-1.956-2.032h-1.685v6.494h.94v-2.357h.587l1.313 2.357zm-1.9-5.603h.736c.652 0 .996.39.996 1.16 0 .77-.344 1.196-1.005 1.196h-.727V8.933zm5.558 5.723c1.248 0 1.992-.825 1.992-2.18v-2.375c0-1.354-.745-2.18-1.992-2.18-1.248 0-1.993.826-1.993 2.18v2.375c0 1.354.745 2.18 1.993 2.18zm0-.918c-.68 0-1.024-.445-1.024-1.262v-2.375c0-.816.344-1.261 1.024-1.261.67 0 1.024.445 1.024 1.261v2.375c0 .816-.354 1.262-1.024 1.262zm4.928.89c1.164 0 1.918-.751 1.918-2.096v-4.49h-.968v4.49c0 .807-.363 1.187-.95 1.187-.596 0-.959-.38-.959-1.187v-4.49h-.968v4.49c0 1.345.754 2.096 1.927 2.096zm4.845-6.586h-1.723v6.494h.94v-2.282h.783c1.275 0 2.001-.752 2.001-2.115 0-1.327-.726-2.097-2.001-2.097zm-.01 3.321h-.772v-2.43h.772c.708 0 1.052.408 1.052 1.206 0 .834-.344 1.224-1.052 1.224zM69.968 28.139v-5.603h-.94v6.494h3.1v-.89h-2.16zm2.879-5.603v6.494h.94v-6.494h-.94zm6.38 0l-1.1 2.635c-.148.37-.372.992-.474 1.29h-.037a34.831 34.831 0 0 0-.475-1.29l-1.099-2.635h-.959v6.494h.922v-2.533c-.019-.742-.047-1.42-.075-2.096l.038-.019c.186.52.41 1.113.633 1.707l.568 1.475h.93l.569-1.475c.223-.594.447-1.187.633-1.707l.037.019a70.17 70.17 0 0 0-.074 2.096v2.533h.922v-6.494h-.96zm2.267 0v6.494h.94v-6.494h-.94zm5.412 0h-3.669v.89h1.35v5.604h.96v-5.603h1.359v-.89zm1.693 5.612v-1.985h2.076v-.862H88.6v-1.883h2.253v-.882H87.66v6.494h3.286v-.882H88.6zm3.351.882h1.63c1.257 0 2.002-.752 2.002-2.041v-2.43c0-1.28-.745-2.023-2.012-2.023h-1.62v6.494zm.94-.89v-4.713h.69c.68 0 1.052.39 1.052 1.15v2.393c0 .77-.382 1.17-1.052 1.17h-.69z" fill="#D3AB75"/><g filter="url(#filter0_i)"><path d="M0 2.92h4.066l2.885 20.683h.169l2.9-20.683h4.05L9.298 29.03H4.757L0 2.92zm21.586 2.048c-.716 0-1.284-.214-1.703-.642-.41-.428-.614-1.055-.614-1.88 0-.459.05-.84.153-1.147.113-.316.266-.565.46-.749a1.75 1.75 0 0 1 .737-.412c.286-.092.614-.138.982-.138.767 0 1.35.194 1.75.58.398.388.598 1.01.598 1.866 0 .795-.205 1.416-.614 1.865-.4.438-.982.657-1.75.657zm-2.01 3.012h3.882v21.05h-3.882V7.98zM35.59 29.259c-1.78 0-3.14-.729-4.081-2.186-.93-1.457-1.396-3.68-1.396-6.665v-3.975c0-1.335.097-2.476.291-3.424.195-.958.45-1.758.767-2.4.328-.652.696-1.167 1.105-1.544.42-.377.85-.662 1.29-.856a4.291 4.291 0 0 1 1.303-.382c.43-.061.824-.092 1.182-.092.716 0 1.37.097 1.964.29a4.04 4.04 0 0 1 1.534.857c.43.377.762.856.998 1.437.235.58.352 1.263.352 2.048 0 .49-.025.912-.076 1.269a8.173 8.173 0 0 1-.184 1.009h-3.1v-.703c0-1.06-.128-1.886-.383-2.477-.246-.601-.655-.902-1.228-.902a1.49 1.49 0 0 0-.829.23c-.235.142-.434.392-.598.748-.153.357-.271.836-.353 1.438-.072.6-.107 1.355-.107 2.262v5.977c0 .917.03 1.697.092 2.339.061.642.169 1.167.322 1.575.153.397.358.687.614.87.255.184.573.276.951.276.194 0 .384-.046.568-.138.184-.102.343-.265.476-.489.143-.224.255-.52.337-.886.092-.378.138-.841.138-1.392v-.657h3.345v.81c0 1.998-.445 3.455-1.335 4.372-.88.907-2.2 1.36-3.959 1.36zM47.25 1.223h3.882v16.005h.122L55.49 7.98h3.729l-4.695 9.63 5.14 11.42h-3.959l-4.45-10.441h-.122v10.44H47.25V1.224z" fill="#D3AB75"/></g><g filter="url(#filter1_i)"><path d="M2.364 34.61h11.875v3.696H7.073v9.258h5.62v3.696h-5.62v14.295h-4.71V34.61zm25.51 31.217c-.534 0-1.08-.042-1.638-.127a5.302 5.302 0 0 1-1.6-.525c-.51-.266-.994-.647-1.455-1.142-.448-.495-.842-1.147-1.182-1.956-.34-.81-.606-1.806-.8-2.99-.194-1.184-.29-2.597-.29-4.24v-3.913c0-1.618.096-3.001.29-4.149.206-1.16.479-2.132.818-2.917.352-.785.758-1.407 1.219-1.866.46-.471.945-.827 1.455-1.069a5.21 5.21 0 0 1 1.6-.489 10.449 10.449 0 0 1 1.6-.127 11.4 11.4 0 0 1 1.546.109c.533.072 1.055.23 1.564.471.51.23.988.58 1.436 1.05.461.46.861 1.082 1.2 1.867.352.785.625 1.763.82 2.935.205 1.16.308 2.555.308 4.185v3.913c0 1.62-.103 3.014-.309 4.186-.206 1.171-.485 2.162-.836 2.971-.352.81-.758 1.467-1.219 1.975a5.79 5.79 0 0 1-1.455 1.16 4.853 4.853 0 0 1-1.564.543 8.309 8.309 0 0 1-1.509.145zm.035-3.533c.413 0 .758-.103 1.037-.308.29-.217.521-.568.691-1.051.182-.483.31-1.117.382-1.902.085-.797.127-1.782.127-2.954v-6.141c0-1.172-.042-2.156-.127-2.954-.073-.797-.2-1.437-.382-1.92-.17-.495-.4-.852-.691-1.069-.279-.217-.624-.326-1.037-.326-.436 0-.806.109-1.109.326-.29.218-.533.574-.727 1.069-.194.483-.334 1.123-.419 1.92-.084.798-.127 1.782-.127 2.954v6.141c0 1.172.043 2.157.127 2.954.085.785.225 1.419.419 1.902.194.483.436.834.727 1.051.303.205.673.308 1.11.308zm15.399-21.687h3.364l.4 2.537c.51-.943 1.091-1.65 1.746-2.12.667-.471 1.346-.707 2.037-.707 1.321 0 2.297.405 2.928 1.214.63.81.945 2.023.945 3.642 0 .205-.018.453-.054.742a8.675 8.675 0 0 1-.128.888c-.048.302-.115.61-.2.924-.072.302-.151.58-.236.834h-3.2v-2.32c0-.507-.037-.923-.11-1.25-.06-.326-.145-.585-.254-.779-.11-.205-.237-.344-.382-.416a.924.924 0 0 0-.473-.127c-.364 0-.703.12-1.018.362-.303.23-.558.556-.764.979v20.545h-4.601V40.607zm23.6 25.238a6.34 6.34 0 0 1-.982-.09 3.814 3.814 0 0 1-1.164-.363 4.443 4.443 0 0 1-1.182-.87c-.388-.386-.734-.912-1.036-1.576-.303-.676-.552-1.51-.746-2.5-.182-.99-.273-2.192-.273-3.605v-7.918c0-1.401.097-2.585.291-3.551.206-.966.473-1.764.8-2.392.328-.64.691-1.135 1.092-1.485.412-.362.818-.628 1.218-.797.412-.17.8-.272 1.163-.308.376-.037.686-.055.928-.055a4.456 4.456 0 0 1 2.364.671c.328.193.618.416.873.67.255.242.467.49.636.743l.019-.018-.145-3.153V32.6h4.582v32.956h-3.583l-.4-2.319a8.503 8.503 0 0 1-.709.96 4.92 4.92 0 0 1-.945.852 4.844 4.844 0 0 1-1.237.58 5.236 5.236 0 0 1-1.564.217zm1.564-3.551c.303 0 .57-.048.8-.145.243-.108.455-.242.637-.398.194-.17.357-.363.49-.58a4.06 4.06 0 0 0 .365-.67V45.498a3.865 3.865 0 0 0-.928-1.287 1.916 1.916 0 0 0-1.382-.543c-.34 0-.649.06-.928.181-.278.12-.521.35-.727.689-.206.326-.37.785-.491 1.377-.11.58-.164 1.334-.164 2.264v9.566c0 .93.055 1.691.164 2.283.121.592.285 1.057.49 1.395.207.327.45.556.728.688.291.122.607.182.946.182zm15.09-1.957c0-.544.048-1.069.145-1.576.11-.508.212-.912.309-1.214h3.237c0 .906.043 1.667.127 2.283.097.604.249 1.087.455 1.45.206.362.479.621.818.779.352.157.776.235 1.273.235.691 0 1.195-.193 1.51-.58a2.06 2.06 0 0 0 .472-1.34c0-.266-.036-.52-.109-.762a3.73 3.73 0 0 0-.309-.724 5.297 5.297 0 0 0-.491-.76 42.976 42.976 0 0 0-.655-.835l-3.364-3.949a54.652 54.652 0 0 1-1.273-1.649c-.4-.568-.758-1.147-1.073-1.74a11.48 11.48 0 0 1-.745-1.883 7.648 7.648 0 0 1-.273-2.066c0-.966.163-1.806.491-2.518a5.23 5.23 0 0 1 1.346-1.776 5.697 5.697 0 0 1 1.964-1.05 7.872 7.872 0 0 1 2.345-.345c.91 0 1.728.109 2.456.326.727.218 1.351.544 1.873.979.521.434.92.978 1.2 1.63.278.64.418 1.39.418 2.247 0 .58-.055 1.141-.163 1.685a21.379 21.379 0 0 1-.291 1.395h-3.183a26.395 26.395 0 0 0-.109-2.156c-.06-.616-.176-1.123-.345-1.522-.158-.41-.382-.719-.673-.924-.28-.205-.649-.308-1.11-.308-.4 0-.733.066-1 .2-.267.12-.485.283-.654.488a2.045 2.045 0 0 0-.346.689c-.06.254-.09.513-.09.779 0 .58.138 1.117.417 1.612.279.496.649 1.033 1.11 1.613l3.673 4.294c.266.326.576.725.928 1.195.351.46.684.973 1 1.54.315.556.582 1.166.8 1.83.218.665.327 1.36.327 2.084 0 .882-.14 1.685-.418 2.41a4.894 4.894 0 0 1-1.237 1.83c-.545.507-1.218.9-2.018 1.177-.789.278-1.692.417-2.71.417a9.923 9.923 0 0 1-2.364-.272 5.29 5.29 0 0 1-1.928-.924c-.545-.435-.976-1.002-1.29-1.703-.316-.7-.474-1.564-.474-2.59z" fill="#D3AB75"/></g><g filter="url(#filter2_i)"><path d="M64.593 8.158V29.03" stroke="#D3AB75" stroke-width="2"/></g><defs><filter id="filter0_i" x="0" y="0" width="59.663" height="33.259" filterUnits="userSpaceOnUse" color-interpolation-filters="sRGB"><feFlood flood-opacity="0" result="BackgroundImageFix"/><feBlend in="SourceGraphic" in2="BackgroundImageFix" result="shape"/><feColorMatrix in="SourceAlpha" values="0 0 0 0 0 0 0 0 0 0 0 0 0 0 0 0 0 0 127 0" result="hardAlpha"/><feOffset dy="4"/><feGaussianBlur stdDeviation="2"/><feComposite in2="hardAlpha" operator="arithmetic" k2="-1" k3="1"/><feColorMatrix values="0 0 0 0 0 0 0 0 0 0 0 0 0 0 0 0 0 0 0.25 0"/><feBlend in2="shape" result="effect1_innerShadow"/></filter><filter id="filter1_i" x="2.364" y="32.599" width="93.636" height="37.246" filterUnits="userSpaceOnUse" color-interpolation-filters="sRGB"><feFlood flood-opacity="0" result="BackgroundImageFix"/><feBlend in="SourceGraphic" in2="BackgroundImageFix" result="shape"/><feColorMatrix in="SourceAlpha" values="0 0 0 0 0 0 0 0 0 0 0 0 0 0 0 0 0 0 127 0" result="hardAlpha"/><feOffset dy="4"/><feGaussianBlur stdDeviation="2"/><feComposite in2="hardAlpha" operator="arithmetic" k2="-1" k3="1"/><feColorMatrix values="0 0 0 0 0 0 0 0 0 0 0 0 0 0 0 0 0 0 0.25 0"/><feBlend in2="shape" result="effect1_innerShadow"/></filter><filter id="filter2_i" x="63.593" y="8.158" width="2" height="24.872" filterUnits="userSpaceOnUse" color-interpolation-filters="sRGB"><feFlood flood-opacity="0" result="BackgroundImageFix"/><feBlend in="SourceGraphic" in2="BackgroundImageFix" result="shape"/><feColorMatrix in="SourceAlpha" values="0 0 0 0 0 0 0 0 0 0 0 0 0 0 0 0 0 0 127 0" result="hardAlpha"/><feOffset dy="4"/><feGaussianBlur stdDeviation="2"/><feComposite in2="hardAlpha" operator="arithmetic" k2="-1" k3="1"/><feColorMatrix values="0 0 0 0 0 0 0 0 0 0 0 0 0 0 0 0 0 0 0.25 0"/><feBlend in2="shape" result="effect1_innerShadow"/></filter></defs></svg>