<svg width="220" height="151" fill="none" xmlns="http://www.w3.org/2000/svg"><path d="M162.178 33.544c2.689 0 4.375-1.637 4.417-4.55v-3.783h-4.481v1.913h2.369v1.87c0 1.702-.854 2.488-2.283 2.488-1.387 0-2.241-.786-2.241-2.593V22.85c0-1.807.811-2.593 2.177-2.593 1.365 0 2.133.744 2.219 2.466h2.134c-.107-2.934-1.707-4.528-4.353-4.528-2.71 0-4.374 1.615-4.374 4.634v6.059c0 3.018 1.728 4.655 4.416 4.655zm13.146-.234h2.389l-3.243-5.697c1.707-.616 2.689-2.21 2.689-4.528 0-2.955-1.622-4.655-4.481-4.655h-3.862v14.88h2.155v-5.4h1.344l3.009 5.4zm-4.353-12.84h1.685c1.494 0 2.283.893 2.283 2.658 0 1.764-.789 2.742-2.304 2.742h-1.664v-5.4zm12.735 13.117c2.86 0 4.567-1.892 4.567-4.996v-5.442c0-3.104-1.707-4.996-4.567-4.996-2.859 0-4.566 1.892-4.566 4.996v5.442c0 3.104 1.707 4.996 4.566 4.996zm0-2.105c-1.557 0-2.347-1.02-2.347-2.891v-5.442c0-1.87.79-2.891 2.347-2.891 1.537 0 2.348 1.02 2.348 2.891v5.442c0 1.87-.811 2.891-2.348 2.891zm11.295 2.04c2.667 0 4.395-1.721 4.395-4.803v-10.29h-2.219v10.29c0 1.849-.832 2.72-2.176 2.72-1.366 0-2.198-.871-2.198-2.72v-10.29h-2.219v10.29c0 3.082 1.728 4.804 4.417 4.804zm11.102-15.092h-3.948v14.88h2.155v-5.23h1.793c2.923 0 4.587-1.721 4.587-4.846 0-3.04-1.664-4.804-4.587-4.804zm-.022 7.61h-1.771v-5.57h1.771c1.622 0 2.411.936 2.411 2.764 0 1.913-.789 2.806-2.411 2.806zm-45.738 38.445v-12.84h-2.155v14.881h7.106v-2.04h-4.951zm6.598-12.84v14.881h2.155v-14.88h-2.155zm14.62 0l-2.518 6.038a78.5 78.5 0 0 0-1.088 2.955h-.086a77.404 77.404 0 0 0-1.088-2.955l-2.518-6.038h-2.197v14.881h2.112v-5.803c-.043-1.701-.107-3.253-.171-4.805l.086-.042c.426 1.19.939 2.55 1.451 3.911l1.301 3.38h2.134l1.301-3.38a254.31 254.31 0 0 0 1.451-3.911l.086.042a159.531 159.531 0 0 0-.171 4.805v5.803h2.112v-14.88h-2.197zm5.195 0v14.881h2.155v-14.88h-2.155zm12.403 0h-8.407v2.041h3.094v12.84h2.197v-12.84h3.116v-2.04zm3.88 12.861v-4.549h4.759V57.98h-4.759v-4.315h5.164v-2.02h-7.319v14.881h7.532v-2.02h-5.377zm7.681 2.02h3.734c2.88 0 4.587-1.722 4.587-4.677v-5.57c0-2.933-1.707-4.634-4.609-4.634h-3.712v14.881zm2.155-2.04v-10.8h1.579c1.557 0 2.411.893 2.411 2.636v5.485c0 1.764-.875 2.678-2.411 2.678h-1.579z" fill="#072331"/><g filter="url(#filter0_i)"><path d="M0 6.691h9.318l6.61 47.399h.388l6.644-47.4h9.283L21.31 66.526H10.9L0 6.691zm49.467 4.694c-1.64 0-2.942-.49-3.903-1.47-.938-.982-1.407-2.418-1.407-4.31 0-1.05.118-1.927.352-2.627.258-.724.61-1.297 1.055-1.717a4.01 4.01 0 0 1 1.688-.946C47.908.105 48.658 0 49.502 0c1.758 0 3.095.444 4.009 1.331.914.888 1.371 2.312 1.371 4.274 0 1.822-.469 3.246-1.406 4.274-.915 1.004-2.25 1.506-4.009 1.506zm-4.606 6.902h8.896v48.24H44.86v-48.24zm36.703 48.765c-4.08 0-7.197-1.67-9.354-5.01-2.133-3.34-3.2-8.431-3.2-15.274V37.66c0-3.06.223-5.675.669-7.848.445-2.195 1.031-4.028 1.758-5.5.75-1.494 1.594-2.674 2.532-3.538.96-.864 1.945-1.518 2.953-1.962 1.008-.467 2.005-.759 2.989-.876.985-.14 1.887-.21 2.708-.21 1.64 0 3.14.222 4.5.666 1.36.42 2.532 1.074 3.517 1.962.984.864 1.746 1.962 2.285 3.293.54 1.331.81 2.896.81 4.694 0 1.121-.06 2.09-.177 2.908a18.329 18.329 0 0 1-.422 2.312H86.03v-1.612c0-2.429-.293-4.32-.879-5.675-.562-1.378-1.5-2.067-2.813-2.067-.726 0-1.36.175-1.898.526-.54.327-.997.899-1.372 1.716-.351.818-.621 1.915-.808 3.293-.165 1.378-.247 3.107-.247 5.185v13.698c0 2.102.07 3.888.211 5.36.14 1.471.387 2.674.739 3.608.351.91.82 1.576 1.406 1.997.586.42 1.313.63 2.18.63.446 0 .88-.105 1.301-.315.422-.233.786-.607 1.09-1.12.329-.515.586-1.192.774-2.033.21-.864.316-1.927.316-3.188v-1.506h7.666v1.857c0 4.577-1.02 7.917-3.06 10.019-2.015 2.078-5.04 3.118-9.071 3.118zm26.716-64.25h8.897v36.68h.281l9.705-21.195h8.544l-10.759 22.07 11.779 26.17h-9.072l-10.197-23.928h-.281v23.927h-8.897V2.803z" fill="#072331"/></g><g filter="url(#filter1_i)"><path d="M5.416 79.315H32.63v8.47H16.21V109h12.877v8.47H16.21v32.759H5.416V79.315zm58.46 71.539a24.95 24.95 0 0 1-3.75-.291 12.167 12.167 0 0 1-3.668-1.204c-1.167-.61-2.279-1.482-3.334-2.616-1.028-1.135-1.931-2.63-2.71-4.484-.777-1.855-1.388-4.139-1.833-6.851-.444-2.713-.667-5.951-.667-9.716v-8.968c0-3.709.223-6.878.667-9.508.472-2.657 1.098-4.885 1.876-6.685.805-1.799 1.736-3.224 2.792-4.276 1.055-1.08 2.167-1.896 3.334-2.45a11.94 11.94 0 0 1 3.667-1.12 23.775 23.775 0 0 1 3.667-.291c1.14 0 2.32.082 3.543.249 1.222.166 2.417.526 3.584 1.08 1.167.525 2.264 1.328 3.292 2.407 1.056 1.052 1.973 2.478 2.75 4.277.806 1.799 1.431 4.041 1.876 6.726.472 2.657.708 5.854.708 9.591v8.968c0 3.709-.236 6.906-.708 9.591-.472 2.685-1.112 4.955-1.917 6.81-.806 1.854-1.737 3.362-2.792 4.525-1.056 1.135-2.167 2.021-3.334 2.657a11.068 11.068 0 0 1-3.584 1.246 19.018 19.018 0 0 1-3.46.333zm.083-8.097c.945 0 1.736-.235 2.376-.706.666-.498 1.194-1.3 1.583-2.408.417-1.107.709-2.561.875-4.36.195-1.827.292-4.083.292-6.768V114.44c0-2.684-.097-4.94-.292-6.767-.166-1.827-.458-3.294-.875-4.401-.389-1.135-.917-1.952-1.584-2.45-.639-.498-1.43-.747-2.375-.747-1 0-1.848.249-2.542.747-.667.498-1.223 1.315-1.667 2.45-.445 1.107-.764 2.574-.959 4.401-.194 1.827-.291 4.083-.291 6.767v14.075c0 2.685.097 4.941.291 6.768.195 1.799.514 3.253.959 4.36.444 1.108 1 1.91 1.667 2.408.694.471 1.542.706 2.542.706zm35.288-49.7h7.71l.917 5.814c1.167-2.16 2.5-3.779 4.001-4.858 1.528-1.08 3.084-1.62 4.667-1.62 3.029 0 5.265.928 6.71 2.782 1.445 1.855 2.167 4.637 2.167 8.346 0 .47-.042 1.038-.125 1.702a19.953 19.953 0 0 1-.292 2.034 20.763 20.763 0 0 1-.458 2.118 23.326 23.326 0 0 1-.542 1.91h-7.335v-5.315c0-1.162-.083-2.117-.25-2.864-.139-.748-.333-1.343-.583-1.786-.25-.47-.542-.789-.875-.955a2.13 2.13 0 0 0-1.084-.29c-.833 0-1.611.276-2.334.83-.694.526-1.278 1.273-1.75 2.242v47.083H99.247V93.058zm54.084 57.838c-.64 0-1.389-.069-2.251-.208-.861-.111-1.749-.388-2.667-.83-.916-.444-1.82-1.108-2.708-1.993-.89-.886-1.682-2.09-2.375-3.612-.695-1.551-1.265-3.46-1.71-5.729-.416-2.271-.624-5.025-.624-8.263v-18.145c0-3.211.221-5.923.667-8.138.472-2.214 1.082-4.04 1.833-5.48.75-1.467 1.583-2.602 2.501-3.405.944-.83 1.875-1.439 2.791-1.827.945-.387 1.834-.622 2.667-.705.862-.084 1.57-.125 2.126-.125 1.028 0 2 .138 2.918.415.916.277 1.749.65 2.5 1.121.75.443 1.416.955 2.001 1.536a10.13 10.13 0 0 1 1.457 1.703l.043-.042-.334-7.224V74.706h10.502v75.524h-8.21l-.917-5.314a19.432 19.432 0 0 1-1.625 2.2 11.301 11.301 0 0 1-2.167 1.952c-.834.554-1.778.996-2.834 1.328-1.056.333-2.25.499-3.584.499zm3.584-8.138c.695 0 1.305-.11 1.834-.332a5.934 5.934 0 0 0 1.458-.913 5.787 5.787 0 0 0 1.126-1.329 9.243 9.243 0 0 0 .833-1.537v-34.378c-.528-1.162-1.237-2.145-2.125-2.948-.862-.83-1.918-1.245-3.168-1.245-.778 0-1.486.138-2.125.415-.639.277-1.195.803-1.667 1.578-.472.747-.847 1.799-1.126 3.155-.249 1.329-.375 3.059-.375 5.19v21.922c0 2.131.126 3.876.375 5.232.279 1.357.654 2.422 1.126 3.197.472.748 1.028 1.273 1.667 1.577a5.575 5.575 0 0 0 2.167.416zm34.58-4.484c0-1.247.11-2.45.333-3.613.251-1.162.487-2.09.708-2.781h7.419c0 2.076.097 3.819.292 5.231.221 1.385.569 2.491 1.041 3.322.473.83 1.098 1.425 1.876 1.785.805.36 1.777.54 2.917.54 1.583 0 2.737-.443 3.458-1.329.723-.886 1.085-1.909 1.085-3.073 0-.608-.084-1.189-.251-1.743a8.58 8.58 0 0 0-.708-1.661 12.163 12.163 0 0 0-1.126-1.743 100.32 100.32 0 0 0-1.5-1.911l-7.71-9.05c-1-1.246-1.972-2.506-2.916-3.779a37.236 37.236 0 0 1-2.459-3.986 26.354 26.354 0 0 1-1.709-4.318 17.541 17.541 0 0 1-.625-4.733c0-2.215.375-4.138 1.126-5.772.777-1.633 1.805-2.989 3.083-4.069 1.305-1.079 2.806-1.882 4.501-2.408 1.695-.526 3.487-.788 5.375-.788 2.085 0 3.96.249 5.627.747 1.667.498 3.098 1.245 4.293 2.242 1.194.996 2.111 2.242 2.749 3.737.639 1.467.959 3.183.959 5.148 0 1.329-.125 2.616-.375 3.861a48.808 48.808 0 0 1-.666 3.198h-7.294c-.028-1.883-.11-3.53-.249-4.941-.14-1.412-.404-2.575-.792-3.488-.362-.941-.875-1.647-1.542-2.118-.64-.47-1.487-.705-2.543-.705-.916 0-1.68.152-2.291.456a4.1 4.1 0 0 0-1.5 1.121 4.69 4.69 0 0 0-.793 1.578 7.707 7.707 0 0 0-.208 1.786c0 1.328.319 2.56.958 3.695.639 1.135 1.487 2.366 2.543 3.695l8.418 9.841c.61.747 1.32 1.661 2.125 2.739a28.93 28.93 0 0 1 2.293 3.529 23.274 23.274 0 0 1 1.834 4.193c.5 1.523.749 3.115.749 4.776 0 2.02-.32 3.861-.959 5.521a11.22 11.22 0 0 1-2.834 4.195c-1.249 1.162-2.791 2.062-4.625 2.698-1.807.637-3.876.956-6.21.956-1.916 0-3.722-.209-5.417-.624-1.695-.442-3.167-1.149-4.418-2.117-1.25-.997-2.237-2.298-2.958-3.903-.723-1.606-1.084-3.584-1.084-5.937z" fill="#072331"/></g><g filter="url(#filter2_i)"><path d="M148.026 18.696v47.83" stroke="#072331" stroke-width="2"/></g><defs><filter id="filter0_i" x="0" y="0" width="136.727" height="71.052" filterUnits="userSpaceOnUse" color-interpolation-filters="sRGB"><feFlood flood-opacity="0" result="BackgroundImageFix"/><feBlend in="SourceGraphic" in2="BackgroundImageFix" result="shape"/><feColorMatrix in="SourceAlpha" values="0 0 0 0 0 0 0 0 0 0 0 0 0 0 0 0 0 0 127 0" result="hardAlpha"/><feOffset dy="4"/><feGaussianBlur stdDeviation="2"/><feComposite in2="hardAlpha" operator="arithmetic" k2="-1" k3="1"/><feColorMatrix values="0 0 0 0 0 0 0 0 0 0 0 0 0 0 0 0 0 0 0.25 0"/><feBlend in2="shape" result="effect1_innerShadow"/></filter><filter id="filter1_i" x="5.416" y="74.706" width="214.584" height="80.189" filterUnits="userSpaceOnUse" color-interpolation-filters="sRGB"><feFlood flood-opacity="0" result="BackgroundImageFix"/><feBlend in="SourceGraphic" in2="BackgroundImageFix" result="shape"/><feColorMatrix in="SourceAlpha" values="0 0 0 0 0 0 0 0 0 0 0 0 0 0 0 0 0 0 127 0" result="hardAlpha"/><feOffset dy="4"/><feGaussianBlur stdDeviation="2"/><feComposite in2="hardAlpha" operator="arithmetic" k2="-1" k3="1"/><feColorMatrix values="0 0 0 0 0 0 0 0 0 0 0 0 0 0 0 0 0 0 0.25 0"/><feBlend in2="shape" result="effect1_innerShadow"/></filter><filter id="filter2_i" x="147.026" y="18.696" width="2" height="51.831" filterUnits="userSpaceOnUse" color-interpolation-filters="sRGB"><feFlood flood-opacity="0" result="BackgroundImageFix"/><feBlend in="SourceGraphic" in2="BackgroundImageFix" result="shape"/><feColorMatrix in="SourceAlpha" values="0 0 0 0 0 0 0 0 0 0 0 0 0 0 0 0 0 0 127 0" result="hardAlpha"/><feOffset dy="4"/><feGaussianBlur stdDeviation="2"/><feComposite in2="hardAlpha" operator="arithmetic" k2="-1" k3="1"/><feColorMatrix values="0 0 0 0 0 0 0 0 0 0 0 0 0 0 0 0 0 0 0.25 0"/><feBlend in2="shape" result="effect1_innerShadow"/></filter></defs></svg>