<svg width="96" height="66" viewBox="0 0 96 66" fill="none" xmlns="http://www.w3.org/2000/svg">
<path d="M70.7688 14.6375C71.9419 14.6375 72.6775 13.9232 72.6961 12.6524V11.0012H70.7408V11.8361H71.7743V12.6524C71.7743 13.3945 71.4019 13.7377 70.7781 13.7377C70.1729 13.7377 69.8004 13.3945 69.8004 12.606V9.97156C69.8004 9.18308 70.1543 8.83986 70.7502 8.83986C71.346 8.83986 71.6812 9.16453 71.7185 9.9159H72.6496C72.603 8.63578 71.9047 7.94006 70.7502 7.94006C69.5677 7.94006 68.8414 8.64506 68.8414 9.96228V12.606C68.8414 13.9232 69.5956 14.6375 70.7688 14.6375ZM76.5048 14.5355H77.5476L76.1324 12.0494C76.8773 11.7804 77.3056 11.0847 77.3056 10.0736C77.3056 8.7842 76.5979 8.0421 75.3503 8.0421H73.665V14.5355H74.6054V12.1793H75.192L76.5048 14.5355ZM74.6054 8.93262H75.341C75.9927 8.93262 76.3372 9.32222 76.3372 10.0922C76.3372 10.8621 75.9927 11.2888 75.3317 11.2888H74.6054V8.93262ZM80.1628 14.6561C81.4105 14.6561 82.1553 13.8305 82.1553 12.4761V10.1014C82.1553 8.74709 81.4105 7.92151 80.1628 7.92151C78.9152 7.92151 78.1703 8.74709 78.1703 10.1014V12.4761C78.1703 13.8305 78.9152 14.6561 80.1628 14.6561ZM80.1628 13.7377C79.4831 13.7377 79.1386 13.2925 79.1386 12.4761V10.1014C79.1386 9.28512 79.4831 8.83986 80.1628 8.83986C80.8332 8.83986 81.187 9.28512 81.187 10.1014V12.4761C81.187 13.2925 80.8332 13.7377 80.1628 13.7377ZM85.0912 14.6282C86.255 14.6282 87.0092 13.8769 87.0092 12.5318V8.0421H86.0409V12.5318C86.0409 13.3388 85.6778 13.7192 85.0912 13.7192C84.4953 13.7192 84.1322 13.3388 84.1322 12.5318V8.0421H83.1638V12.5318C83.1638 13.8769 83.918 14.6282 85.0912 14.6282ZM89.9357 8.0421H88.2132V14.5355H89.1536V12.2535H89.9357C91.2113 12.2535 91.9375 11.5021 91.9375 10.1385C91.9375 8.81203 91.2113 8.0421 89.9357 8.0421ZM89.9264 11.363H89.1536V8.93262H89.9264C90.634 8.93262 90.9785 9.34078 90.9785 10.1385C90.9785 10.9734 90.634 11.363 89.9264 11.363ZM69.968 28.1391V22.5362H69.0276V29.0296H72.1282V28.1391H69.968ZM72.8468 22.5362V29.0296H73.7872V22.5362H72.8468ZM79.2265 22.5362L78.1278 25.1707C77.9789 25.5417 77.7554 26.1632 77.653 26.4601H77.6157C77.5133 26.1632 77.2898 25.5417 77.1409 25.1707L76.0422 22.5362H75.0832V29.0296H76.005V26.4972C75.9863 25.7551 75.9584 25.0779 75.9305 24.4008L75.9677 24.3822C76.1539 24.9017 76.3774 25.4954 76.6009 26.089L77.1688 27.564H78.0999L78.6679 26.089C78.8913 25.4954 79.1148 24.9017 79.301 24.3822L79.3382 24.4008C79.301 25.0779 79.2824 25.7551 79.2638 26.4972V29.0296H80.1855V22.5362H79.2265ZM81.4937 22.5362V29.0296H82.4341V22.5362H81.4937ZM86.9056 22.5362H83.2371V23.4268H84.5872V29.0296H85.5462V23.4268H86.9056V22.5362ZM88.599 28.1484V26.1632H90.6754V25.3006H88.599V23.4175H90.8522V22.5362H87.6586V29.0296H90.9454V28.1484H88.599ZM91.9503 29.0296H93.5797C94.8367 29.0296 95.5816 28.2782 95.5816 26.9888V24.5585C95.5816 23.2783 94.8367 22.5362 93.5704 22.5362H91.9503V29.0296ZM92.8907 28.1391V23.4268H93.5797C94.2594 23.4268 94.6319 23.8164 94.6319 24.577V26.9703C94.6319 27.7402 94.2501 28.1391 93.5797 28.1391H92.8907Z" fill="#D3AB75"/>
<g filter="url(#filter0_i)">
<path d="M0 2.91975H4.0661L6.95073 23.6028H7.11955L10.0195 2.91975H14.0703L9.29834 29.0296H4.75657L0 2.91975ZM21.5856 4.96818C20.8696 4.96818 20.3019 4.75419 19.8825 4.32615C19.4733 3.89811 19.2687 3.27138 19.2687 2.44591C19.2687 1.98726 19.3199 1.60513 19.4222 1.29936C19.5347 0.98345 19.6881 0.733745 19.8825 0.550325C20.087 0.356695 20.3326 0.219111 20.619 0.137584C20.9054 0.0458597 21.2327 0 21.601 0C22.3682 0 22.9512 0.193636 23.3502 0.580896C23.7491 0.968145 23.9486 1.58983 23.9486 2.44591C23.9486 3.24083 23.744 3.86245 23.3348 4.3109C22.9359 4.74909 22.3528 4.96818 21.5856 4.96818ZM19.5756 7.97971H23.4576V29.0296H19.5756V7.97971ZM35.5914 29.2589C33.8116 29.2589 32.4511 28.5303 31.51 27.0729C30.5791 25.6155 30.1137 23.3939 30.1137 20.4079V16.4333C30.1137 15.0982 30.2109 13.9569 30.4053 13.0091C30.5996 12.0511 30.8553 11.2511 31.1725 10.609C31.4998 9.95677 31.868 9.44211 32.2772 9.06509C32.6966 8.68801 33.1262 8.40265 33.5661 8.20901C34.0059 8.00516 34.4407 7.87779 34.8703 7.82683C35.2999 7.76566 35.6938 7.73511 36.0518 7.73511C36.7678 7.73511 37.4225 7.83193 38.0158 8.02557C38.6091 8.20901 39.1205 8.49437 39.5501 8.8816C39.9798 9.25867 40.3122 9.73768 40.5475 10.3186C40.7828 10.8995 40.9004 11.5823 40.9004 12.367C40.9004 12.8562 40.8748 13.2791 40.8237 13.6358C40.7828 13.9823 40.7214 14.3186 40.6396 14.6448H37.5401V13.9416C37.5401 12.8817 37.4122 12.0562 37.1565 11.4651C36.911 10.8638 36.5019 10.5631 35.929 10.5631C35.6119 10.5631 35.3358 10.6396 35.1005 10.7924C34.8652 10.9351 34.6657 11.1848 34.502 11.5415C34.3486 11.8982 34.231 12.3772 34.1491 12.9785C34.0775 13.5798 34.0417 14.3339 34.0417 15.2409V21.2181C34.0417 22.1353 34.0724 22.9149 34.1338 23.5569C34.1952 24.199 34.3026 24.7238 34.456 25.1315C34.6095 25.5289 34.8141 25.8194 35.0698 26.0028C35.3255 26.1863 35.6426 26.278 36.0211 26.278C36.2155 26.278 36.4047 26.2321 36.5888 26.1404C36.7729 26.0385 36.9315 25.8755 37.0645 25.6513C37.2076 25.427 37.3202 25.1315 37.402 24.7646C37.4941 24.3875 37.5401 23.9238 37.5401 23.3735V22.7162H40.8851V23.5264C40.8851 25.5238 40.4401 26.9812 39.5501 27.8984C38.6704 28.8054 37.3508 29.2589 35.5914 29.2589ZM47.2497 1.22295H51.1316V17.2282H51.2544L55.4893 7.97971H59.2175L54.5226 17.6104L59.6627 29.0296H55.7041L51.2544 18.5887H51.1316V29.0296H47.2497V1.22295Z" fill="#D3AB75"/>
</g>
<g filter="url(#filter1_i)">
<path d="M2.36353 34.6101H14.2385V38.3061H7.07347V47.5643H12.6927V51.2603H7.07347V65.5551H2.36353V34.6101ZM27.8731 65.827C27.3396 65.827 26.7941 65.7847 26.2364 65.7C25.6908 65.6154 25.1574 65.4403 24.6361 65.1748C24.1269 64.9086 23.6419 64.5283 23.1813 64.0332C22.7327 63.5381 22.3386 62.8858 21.9992 62.0765C21.6598 61.2671 21.393 60.2705 21.1991 59.0872C21.0051 57.9033 20.9081 56.4904 20.9081 54.8474V50.9341C20.9081 49.3156 21.0051 47.9326 21.1991 46.7852C21.4052 45.6256 21.6779 44.6533 22.0174 43.8683C22.369 43.0831 22.7751 42.4611 23.2358 42.0021C23.6965 41.531 24.1814 41.1747 24.6906 40.9331C25.2119 40.6795 25.7454 40.5165 26.2909 40.444C26.8365 40.3595 27.3699 40.3172 27.8912 40.3172C28.3883 40.3172 28.9035 40.3534 29.437 40.4258C29.9704 40.4983 30.4917 40.6554 31.0009 40.897C31.5101 41.1264 31.989 41.4767 32.4375 41.9477C32.8982 42.4067 33.2983 43.0288 33.6378 43.8139C33.9894 44.599 34.2621 45.5773 34.4561 46.7489C34.6622 47.9085 34.7652 49.3036 34.7652 50.9341V54.8474C34.7652 56.4661 34.6622 57.861 34.4561 59.0327C34.25 60.2044 33.9711 61.1947 33.6196 62.004C33.268 62.8134 32.8619 63.4714 32.4012 63.9787C31.9405 64.4738 31.4555 64.8605 30.9463 65.1382C30.4372 65.4159 29.9159 65.5974 29.3824 65.682C28.8611 65.7783 28.358 65.827 27.8731 65.827ZM27.9094 62.2939C28.3216 62.2939 28.6671 62.1913 28.946 61.986C29.2369 61.7686 29.4673 61.4184 29.637 60.9349C29.8189 60.452 29.9462 59.8177 30.0189 59.0327C30.1038 58.2355 30.1462 57.2511 30.1462 56.0794V49.9376C30.1462 48.7661 30.1038 47.7817 30.0189 46.9845C29.9462 46.1873 29.8189 45.5471 29.637 45.064C29.4673 44.5688 29.2369 44.2125 28.946 43.995C28.6671 43.7776 28.3216 43.6689 27.9094 43.6689C27.473 43.6689 27.1032 43.7776 26.8001 43.995C26.5091 44.2125 26.2667 44.5688 26.0727 45.064C25.8787 45.5471 25.7393 46.1873 25.6545 46.9845C25.5696 47.7817 25.5271 48.7661 25.5271 49.9376V56.0794C25.5271 57.2511 25.5696 58.2355 25.6545 59.0327C25.7393 59.8177 25.8787 60.452 26.0727 60.9349C26.2667 61.4184 26.5091 61.7686 26.8001 61.986C27.1032 62.1913 27.473 62.2939 27.9094 62.2939ZM43.3079 40.6071H46.6722L47.0723 43.1435C47.5815 42.2014 48.1634 41.4948 48.8181 41.0237C49.4849 40.5527 50.1638 40.3172 50.8548 40.3172C52.1763 40.3172 53.1522 40.7218 53.7826 41.531C54.413 42.3403 54.7283 43.5542 54.7283 45.1727C54.7283 45.378 54.7101 45.6256 54.6737 45.9155C54.6495 46.1933 54.607 46.4893 54.5464 46.8033C54.4979 47.1053 54.4312 47.4132 54.3464 47.7273C54.2737 48.0292 54.1948 48.3071 54.11 48.5607H50.9094V46.2416C50.9094 45.7343 50.873 45.3177 50.8003 44.9915C50.7396 44.6654 50.6548 44.4057 50.5457 44.2125C50.4366 44.0071 50.3093 43.8683 50.1638 43.7958C50.0183 43.7112 49.8607 43.6689 49.691 43.6689C49.3273 43.6689 48.9878 43.7897 48.6726 44.0313C48.3695 44.2608 48.1149 44.5869 47.9088 45.0096V65.5551H43.3079V40.6071ZM66.9083 65.845C66.629 65.845 66.3019 65.8148 65.926 65.7545C65.5501 65.7058 65.1625 65.5852 64.7621 65.3922C64.3624 65.1985 63.9678 64.9086 63.5803 64.5225C63.1921 64.1358 62.8464 63.6105 62.5438 62.9461C62.2407 62.2695 61.9922 61.4364 61.7978 60.4462C61.6162 59.4554 61.5255 58.2535 61.5255 56.8406V48.9231C61.5255 47.5219 61.6221 46.3383 61.8164 45.372C62.0224 44.4057 62.289 43.6085 62.6166 42.9805C62.9436 42.3403 63.3073 41.8451 63.7077 41.4948C64.1197 41.1325 64.5259 40.8667 64.9257 40.6976C65.3383 40.5285 65.7258 40.4258 66.0895 40.3897C66.4654 40.3534 66.7745 40.3353 67.0171 40.3353C67.4658 40.3353 67.89 40.3957 68.2904 40.5165C68.6902 40.6372 69.0539 40.8003 69.3815 41.0056C69.7085 41.1989 69.9995 41.4223 70.2544 41.676C70.5087 41.9176 70.7211 42.1651 70.8904 42.4188L70.909 42.4007L70.7636 39.2482V32.599H75.3462V65.5551H71.7633L71.3635 63.236C71.1575 63.5618 70.9207 63.8825 70.6542 64.1961C70.3876 64.5103 70.0722 64.7944 69.7085 65.0478C69.3448 65.2895 68.9328 65.4826 68.4719 65.6275C68.011 65.7725 67.4902 65.845 66.9083 65.845ZM68.4719 62.2939C68.7751 62.2939 69.0416 62.2458 69.2721 62.149C69.5147 62.0405 69.7266 61.9072 69.9087 61.7507C70.1025 61.5814 70.266 61.3877 70.3999 61.1709C70.5453 60.9529 70.6664 60.7297 70.7636 60.5001V45.4988C70.5331 44.9915 70.2235 44.5628 69.836 44.2125C69.4601 43.8501 68.9992 43.6689 68.4539 43.6689C68.1141 43.6689 67.805 43.7293 67.5263 43.8501C67.2476 43.9709 67.0049 44.2004 66.7989 44.5386C66.5929 44.8647 66.4294 45.3237 66.3077 45.9155C66.1989 46.4953 66.1442 47.2502 66.1442 48.1802V57.7462C66.1442 58.6762 66.1989 59.4374 66.3077 60.0293C66.4294 60.6213 66.5929 61.0862 66.7989 61.4242C67.0049 61.7507 67.2476 61.9797 67.5263 62.1124C67.8173 62.2336 68.1327 62.2939 68.4719 62.2939ZM83.5613 60.3372C83.5613 59.7934 83.6096 59.2681 83.7068 58.7608C83.8162 58.2535 83.9192 57.8488 84.0158 57.5474H87.2531C87.2531 58.4529 87.2955 59.2136 87.3805 59.8299C87.4771 60.434 87.629 60.917 87.835 61.2793C88.041 61.6417 88.3139 61.9014 88.6532 62.0585C89.0047 62.2156 89.4289 62.2939 89.9264 62.2939C90.6172 62.2939 91.1206 62.1008 91.4354 61.7141C91.7508 61.3274 91.9085 60.881 91.9085 60.3731C91.9085 60.1076 91.8718 59.8542 91.7991 59.6125C91.7263 59.3707 91.6233 59.1295 91.4901 58.8878C91.3568 58.6338 91.1933 58.3805 90.9989 58.1271C90.8052 57.8732 90.5869 57.5955 90.3443 57.2934L86.9801 53.3441C86.5437 52.8002 86.1195 52.2507 85.7075 51.6951C85.3071 51.1274 84.9492 50.5476 84.6344 49.9558C84.3312 49.3518 84.0827 48.7238 83.8889 48.0716C83.7068 47.4193 83.616 46.7308 83.616 46.0061C83.616 45.0398 83.7795 44.2004 84.1072 43.4878C84.4464 42.7751 84.8951 42.1833 85.4526 41.7122C86.0223 41.2412 86.677 40.8909 87.4166 40.6614C88.1562 40.4319 88.9383 40.3172 89.7623 40.3172C90.6719 40.3172 91.4901 40.4258 92.2175 40.6432C92.9449 40.8607 93.5693 41.1868 94.0907 41.6217C94.6121 42.0565 95.0119 42.6 95.2906 43.2522C95.5694 43.8924 95.709 44.6413 95.709 45.4988C95.709 46.0785 95.6543 46.6402 95.5455 47.1838C95.4483 47.7273 95.3512 48.1923 95.2546 48.5788H92.072C92.0598 47.7575 92.0237 47.0388 91.9632 46.4228C91.9021 45.8068 91.7869 45.2995 91.6175 44.9009C91.4598 44.4903 91.2358 44.1823 90.9448 43.9769C90.6655 43.7716 90.296 43.6689 89.8351 43.6689C89.4353 43.6689 89.1018 43.7354 88.8353 43.8683C88.5682 43.989 88.35 44.152 88.1807 44.3574C88.023 44.5628 87.9077 44.7922 87.835 45.0459C87.7745 45.2995 87.7442 45.5592 87.7442 45.825C87.7442 46.4047 87.8833 46.9422 88.162 47.4374C88.4408 47.9326 88.8109 48.4701 89.2718 49.0498L92.9449 53.3441C93.2114 53.6699 93.521 54.0688 93.8725 54.5395C94.224 54.9987 94.5574 55.5118 94.8728 56.0794C95.1876 56.6354 95.4548 57.2453 95.673 57.9091C95.8912 58.5735 96 59.2681 96 59.9928C96 60.8746 95.8604 61.6776 95.5816 62.4023C95.3029 63.1154 94.8909 63.7253 94.345 64.2326C93.7998 64.7399 93.127 65.1324 92.3269 65.4101C91.5384 65.6878 90.6352 65.827 89.6169 65.827C88.7806 65.827 87.9927 65.736 87.2531 65.5551C86.5134 65.362 85.871 65.0536 85.3251 64.6309C84.7799 64.1961 84.3492 63.6285 84.0344 62.9282C83.719 62.2272 83.5613 61.364 83.5613 60.3372Z" fill="#D3AB75"/>
</g>
<g filter="url(#filter2_i)">
<path d="M64.5934 8.15808V29.0296" stroke="#D3AB75" stroke-width="2"/>
</g>
<defs>
<filter id="filter0_i" x="0" y="0" width="59.6627" height="33.2589" filterUnits="userSpaceOnUse" color-interpolation-filters="sRGB">
<feFlood flood-opacity="0" result="BackgroundImageFix"/>
<feBlend mode="normal" in="SourceGraphic" in2="BackgroundImageFix" result="shape"/>
<feColorMatrix in="SourceAlpha" type="matrix" values="0 0 0 0 0 0 0 0 0 0 0 0 0 0 0 0 0 0 127 0" result="hardAlpha"/>
<feOffset dy="4"/>
<feGaussianBlur stdDeviation="2"/>
<feComposite in2="hardAlpha" operator="arithmetic" k2="-1" k3="1"/>
<feColorMatrix type="matrix" values="0 0 0 0 0 0 0 0 0 0 0 0 0 0 0 0 0 0 0.25 0"/>
<feBlend mode="normal" in2="shape" result="effect1_innerShadow"/>
</filter>
<filter id="filter1_i" x="2.36353" y="32.599" width="93.6365" height="37.246" filterUnits="userSpaceOnUse" color-interpolation-filters="sRGB">
<feFlood flood-opacity="0" result="BackgroundImageFix"/>
<feBlend mode="normal" in="SourceGraphic" in2="BackgroundImageFix" result="shape"/>
<feColorMatrix in="SourceAlpha" type="matrix" values="0 0 0 0 0 0 0 0 0 0 0 0 0 0 0 0 0 0 127 0" result="hardAlpha"/>
<feOffset dy="4"/>
<feGaussianBlur stdDeviation="2"/>
<feComposite in2="hardAlpha" operator="arithmetic" k2="-1" k3="1"/>
<feColorMatrix type="matrix" values="0 0 0 0 0 0 0 0 0 0 0 0 0 0 0 0 0 0 0.25 0"/>
<feBlend mode="normal" in2="shape" result="effect1_innerShadow"/>
</filter>
<filter id="filter2_i" x="63.5934" y="8.15808" width="2" height="24.8716" filterUnits="userSpaceOnUse" color-interpolation-filters="sRGB">
<feFlood flood-opacity="0" result="BackgroundImageFix"/>
<feBlend mode="normal" in="SourceGraphic" in2="BackgroundImageFix" result="shape"/>
<feColorMatrix in="SourceAlpha" type="matrix" values="0 0 0 0 0 0 0 0 0 0 0 0 0 0 0 0 0 0 127 0" result="hardAlpha"/>
<feOffset dy="4"/>
<feGaussianBlur stdDeviation="2"/>
<feComposite in2="hardAlpha" operator="arithmetic" k2="-1" k3="1"/>
<feColorMatrix type="matrix" values="0 0 0 0 0 0 0 0 0 0 0 0 0 0 0 0 0 0 0.25 0"/>
<feBlend mode="normal" in2="shape" result="effect1_innerShadow"/>
</filter>
</defs>
</svg>
