<svg width="220" height="151" viewBox="0 0 220 151" fill="none" xmlns="http://www.w3.org/2000/svg">
<path d="M162.178 33.5442C164.867 33.5442 166.553 31.9073 166.595 28.9949V25.211H162.114V27.1242H164.483V28.9949C164.483 30.6956 163.629 31.4821 162.2 31.4821C160.813 31.4821 159.959 30.6956 159.959 28.8886V22.8514C159.959 21.0444 160.77 20.2579 162.136 20.2579C163.501 20.2579 164.269 21.0019 164.355 22.7238H166.489C166.382 19.7902 164.782 18.1958 162.136 18.1958C159.426 18.1958 157.762 19.8115 157.762 22.8301V28.8886C157.762 31.9073 159.49 33.5442 162.178 33.5442ZM175.324 33.3103H177.713L174.47 27.6132C176.177 26.9967 177.159 25.4023 177.159 23.0852C177.159 20.1303 175.537 18.4297 172.678 18.4297H168.816V33.3103H170.971V27.9108H172.315L175.324 33.3103ZM170.971 20.4705H172.656C174.15 20.4705 174.939 21.3633 174.939 23.1277C174.939 24.8921 174.15 25.87 172.635 25.87H170.971V20.4705ZM183.706 33.5867C186.566 33.5867 188.273 31.6947 188.273 28.591V23.149C188.273 20.0453 186.566 18.1533 183.706 18.1533C180.847 18.1533 179.14 20.0453 179.14 23.149V28.591C179.14 31.6947 180.847 33.5867 183.706 33.5867ZM183.706 31.4821C182.149 31.4821 181.359 30.4617 181.359 28.591V23.149C181.359 21.2783 182.149 20.2579 183.706 20.2579C185.243 20.2579 186.054 21.2783 186.054 23.149V28.591C186.054 30.4617 185.243 31.4821 183.706 31.4821ZM195.001 33.5229C197.668 33.5229 199.396 31.801 199.396 28.7186V18.4297H197.177V28.7186C197.177 30.568 196.345 31.4396 195.001 31.4396C193.635 31.4396 192.803 30.568 192.803 28.7186V18.4297H190.584V28.7186C190.584 31.801 192.312 33.5229 195.001 33.5229ZM206.103 18.4297H202.155V33.3103H204.31V28.0808H206.103C209.026 28.0808 210.69 26.3589 210.69 23.234C210.69 20.1941 209.026 18.4297 206.103 18.4297ZM206.081 26.0401H204.31V20.4705H206.081C207.703 20.4705 208.492 21.4058 208.492 23.234C208.492 25.1472 207.703 26.0401 206.081 26.0401ZM160.343 64.4853V51.6454H158.188V66.5261H165.294V64.4853H160.343ZM166.941 51.6454V66.5261H169.096V51.6454H166.941ZM181.561 51.6454L179.043 57.6827C178.702 58.533 178.189 59.9573 177.955 60.6376H177.869C177.635 59.9573 177.123 58.533 176.781 57.6827L174.263 51.6454H172.066V66.5261H174.178V60.7226C174.135 59.022 174.071 57.4701 174.007 55.9183L174.093 55.8758C174.519 57.0662 175.032 58.4267 175.544 59.7872L176.845 63.1673H178.979L180.28 59.7872C180.793 58.4267 181.305 57.0662 181.731 55.8758L181.817 55.9183C181.731 57.4701 181.689 59.022 181.646 60.7226V66.5261H183.758V51.6454H181.561ZM186.756 51.6454V66.5261H188.911V51.6454H186.756ZM199.159 51.6454H190.752V53.6862H193.846V66.5261H196.043V53.6862H199.159V51.6454ZM203.039 64.5065V59.9573H207.798V57.9803H203.039V53.6649H208.203V51.6454H200.884V66.5261H208.416V64.5065H203.039ZM210.72 66.5261H214.454C217.334 66.5261 219.041 64.8041 219.041 61.8493V56.2797C219.041 53.346 217.334 51.6454 214.432 51.6454H210.72V66.5261ZM212.875 64.4853V53.6862H214.454C216.011 53.6862 216.865 54.579 216.865 56.3222V61.8068C216.865 63.5712 215.99 64.4853 214.454 64.4853H212.875Z" fill="#072331"/>
<g filter="url(#filter0_i)">
<path d="M0 6.6911H9.31815L15.9288 54.0897H16.3156L22.9614 6.6911H32.2444L21.3087 66.5262H10.9005L0 6.6911ZM49.467 11.3854C47.8262 11.3854 46.5252 10.895 45.564 9.91409C44.6264 8.93316 44.1575 7.49691 44.1575 5.60521C44.1575 4.55413 44.2747 3.67843 44.5092 2.97771C44.767 2.25374 45.1186 1.6815 45.564 1.26116C46.0328 0.817425 46.5954 0.502129 47.2518 0.315298C47.9082 0.105095 48.6584 0 49.5023 0C51.2605 0 52.5966 0.443749 53.5109 1.33122C54.425 2.21867 54.8822 3.64335 54.8822 5.60521C54.8822 7.42689 54.4133 8.85145 53.4757 9.87914C52.5614 10.8833 51.2252 11.3854 49.467 11.3854ZM44.8607 18.2868H53.7569V66.5262H44.8607V18.2868ZM81.5637 67.0517C77.4848 67.0517 74.3671 65.3818 72.2104 62.0421C70.0772 58.7023 69.0106 53.611 69.0106 46.768V37.6596C69.0106 34.6001 69.2333 31.9845 69.6787 29.8124C70.1241 27.617 70.7101 25.7838 71.4369 24.3123C72.187 22.8176 73.0309 21.6382 73.9686 20.7742C74.9297 19.91 75.9143 19.2561 76.9222 18.8123C77.9303 18.3452 78.9266 18.0533 79.911 17.9365C80.8956 17.7963 81.7982 17.7263 82.6186 17.7263C84.2596 17.7263 85.7599 17.9482 87.1194 18.3919C88.4792 18.8123 89.6513 19.4663 90.6357 20.3537C91.6203 21.2178 92.3822 22.3155 92.9213 23.6468C93.4605 24.978 93.7302 26.5428 93.7302 28.3411C93.7302 29.4621 93.6715 30.4313 93.5543 31.2487C93.4605 32.0428 93.3198 32.8135 93.1323 33.5609H86.0294V31.9494C86.0294 29.5205 85.7364 27.6287 85.1504 26.2742C84.5878 24.8962 83.6501 24.2072 82.3373 24.2072C81.6107 24.2072 80.9778 24.3825 80.4386 24.7327C79.8994 25.0597 79.4423 25.6319 79.0671 26.4493C78.7156 27.2668 78.446 28.3644 78.2585 29.7424C78.0943 31.1203 78.0123 32.8485 78.0123 34.9271V48.6248C78.0123 50.7267 78.0827 52.5133 78.2232 53.9846C78.3639 55.456 78.6101 56.6587 78.9617 57.593C79.3133 58.5038 79.7822 59.1694 80.3682 59.5898C80.9543 60.0102 81.681 60.2204 82.5483 60.2204C82.9937 60.2204 83.4274 60.1153 83.8494 59.9051C84.2713 59.6715 84.6346 59.2979 84.9394 58.7841C85.2675 58.2702 85.5254 57.593 85.7129 56.7523C85.9239 55.8881 86.0294 54.8255 86.0294 53.5642V52.0579H93.695V53.9146C93.695 58.4921 92.6751 61.8319 90.6357 63.9338C88.6197 66.0124 85.5957 67.0517 81.5637 67.0517ZM108.28 2.8026H117.177V39.4813H117.458L127.163 18.2868H135.707L124.948 40.3571L136.727 66.5262H127.655L117.458 42.5992H117.177V66.5262H108.28V2.8026Z" fill="#072331"/>
</g>
<g filter="url(#filter1_i)">
<path d="M5.41638 79.3148H32.6299V87.7848H16.21V109.001H29.0875V117.471H16.21V150.23H5.41638V79.3148ZM63.8758 150.854C62.6533 150.854 61.403 150.757 60.1251 150.563C58.8748 150.369 57.6523 149.967 56.4577 149.359C55.2908 148.749 54.1794 147.877 53.1237 146.743C52.0957 145.608 51.1927 144.113 50.4148 142.259C49.637 140.404 49.0256 138.12 48.5812 135.408C48.1367 132.695 47.9144 129.457 47.9144 125.692V116.724C47.9144 113.015 48.1367 109.846 48.5812 107.216C49.0535 104.559 49.6786 102.331 50.4566 100.531C51.2622 98.7322 52.1929 97.3067 53.2487 96.2548C54.3045 95.1753 55.4158 94.3587 56.5827 93.8051C57.7773 93.224 58.9998 92.8502 60.25 92.6841C61.5002 92.4904 62.7227 92.3936 63.9174 92.3936C65.0565 92.3936 66.2373 92.4765 67.4598 92.6426C68.6821 92.8086 69.8769 93.1686 71.0438 93.7222C72.2107 94.2481 73.3081 95.0508 74.336 96.1302C75.3918 97.1821 76.3086 98.6076 77.0865 100.407C77.8923 102.206 78.5173 104.448 78.9619 107.133C79.4341 109.79 79.6703 112.987 79.6703 116.724V125.692C79.6703 129.401 79.4341 132.598 78.9619 135.283C78.4896 137.968 77.8505 140.238 77.0449 142.093C76.2391 143.947 75.3084 145.455 74.2526 146.618C73.1968 147.753 72.0856 148.639 70.9187 149.275C69.7518 149.912 68.5572 150.327 67.3347 150.521C66.14 150.742 64.987 150.854 63.8758 150.854ZM63.9591 142.757C64.9037 142.757 65.6954 142.522 66.3345 142.051C67.0013 141.553 67.5291 140.751 67.9181 139.643C68.3349 138.536 68.6266 137.082 68.7933 135.283C68.9878 133.456 69.085 131.2 69.085 128.515V114.44C69.085 111.756 68.9878 109.5 68.7933 107.673C68.6266 105.846 68.3349 104.379 67.9181 103.272C67.5291 102.137 67.0013 101.32 66.3345 100.822C65.6954 100.324 64.9037 100.075 63.9591 100.075C62.9589 100.075 62.1114 100.324 61.4169 100.822C60.7501 101.32 60.1944 102.137 59.7499 103.272C59.3054 104.379 58.9859 105.846 58.7915 107.673C58.5969 109.5 58.4997 111.756 58.4997 114.44V128.515C58.4997 131.2 58.5969 133.456 58.7915 135.283C58.9859 137.082 59.3054 138.536 59.7499 139.643C60.1944 140.751 60.7501 141.553 61.4169 142.051C62.1114 142.522 62.9589 142.757 63.9591 142.757ZM99.2473 93.0579H106.957L107.874 98.8706C109.041 96.7116 110.374 95.0923 111.875 94.0128C113.403 92.9333 114.959 92.3936 116.542 92.3936C119.571 92.3936 121.807 93.3208 123.252 95.1753C124.697 97.0298 125.419 99.8117 125.419 103.521C125.419 103.991 125.377 104.559 125.294 105.223C125.238 105.86 125.141 106.538 125.002 107.257C124.891 107.95 124.738 108.655 124.544 109.375C124.377 110.067 124.196 110.704 124.002 111.285H116.667V105.97C116.667 104.808 116.584 103.853 116.417 103.106C116.278 102.358 116.084 101.763 115.834 101.32C115.584 100.85 115.292 100.531 114.959 100.365C114.625 100.172 114.264 100.075 113.875 100.075C113.042 100.075 112.264 100.351 111.541 100.905C110.847 101.431 110.263 102.178 109.791 103.147V150.23H99.2473V93.0579ZM153.331 150.895C152.691 150.895 151.942 150.826 151.08 150.687C150.219 150.576 149.331 150.299 148.413 149.857C147.497 149.413 146.593 148.749 145.705 147.864C144.815 146.978 144.023 145.774 143.33 144.252C142.635 142.701 142.065 140.792 141.62 138.523C141.204 136.252 140.996 133.498 140.996 130.26V112.115C140.996 108.904 141.217 106.192 141.663 103.977C142.135 101.763 142.745 99.9362 143.496 98.4969C144.246 97.0298 145.079 95.895 145.997 95.0923C146.941 94.2619 147.872 93.653 148.788 93.2654C149.733 92.8779 150.622 92.6426 151.455 92.5597C152.317 92.4765 153.025 92.435 153.581 92.435C154.609 92.435 155.581 92.5735 156.499 92.8502C157.415 93.127 158.248 93.5007 158.999 93.9712C159.749 94.4141 160.415 94.9262 161 95.5075C161.582 96.0611 162.069 96.6284 162.457 97.2099L162.5 97.1683L162.166 89.9438V74.7061H172.668V150.23H164.458L163.541 144.916C163.069 145.663 162.527 146.397 161.916 147.116C161.305 147.836 160.582 148.487 159.749 149.068C158.915 149.622 157.971 150.064 156.915 150.396C155.859 150.729 154.665 150.895 153.331 150.895ZM156.915 142.757C157.61 142.757 158.22 142.647 158.749 142.425C159.305 142.176 159.79 141.871 160.207 141.512C160.652 141.124 161.026 140.68 161.333 140.183C161.666 139.684 161.944 139.172 162.166 138.646V104.268C161.638 103.106 160.929 102.123 160.041 101.32C159.179 100.49 158.123 100.075 156.873 100.075C156.095 100.075 155.387 100.213 154.748 100.49C154.109 100.767 153.553 101.293 153.081 102.068C152.609 102.815 152.234 103.867 151.955 105.223C151.706 106.552 151.58 108.282 151.58 110.413V132.335C151.58 134.466 151.706 136.211 151.955 137.567C152.234 138.924 152.609 139.989 153.081 140.764C153.553 141.512 154.109 142.037 154.748 142.341C155.415 142.619 156.137 142.757 156.915 142.757ZM191.495 138.273C191.495 137.026 191.605 135.823 191.828 134.66C192.079 133.498 192.315 132.57 192.536 131.879H199.955C199.955 133.955 200.052 135.698 200.247 137.11C200.468 138.495 200.816 139.601 201.288 140.432C201.761 141.262 202.386 141.857 203.164 142.217C203.969 142.577 204.941 142.757 206.081 142.757C207.664 142.757 208.818 142.314 209.539 141.428C210.262 140.542 210.624 139.519 210.624 138.355C210.624 137.747 210.54 137.166 210.373 136.612C210.206 136.058 209.97 135.505 209.665 134.951C209.359 134.369 208.985 133.789 208.539 133.208C208.095 132.626 207.595 131.99 207.039 131.297L199.329 122.247C198.329 121.001 197.357 119.741 196.413 118.468C195.495 117.167 194.675 115.838 193.954 114.482C193.259 113.098 192.69 111.659 192.245 110.164C191.828 108.669 191.62 107.091 191.62 105.431C191.62 103.216 191.995 101.293 192.746 99.6594C193.523 98.0263 194.551 96.67 195.829 95.5905C197.134 94.511 198.635 93.7083 200.33 93.1824C202.025 92.6565 203.817 92.3936 205.705 92.3936C207.79 92.3936 209.665 92.6426 211.332 93.1408C212.999 93.639 214.43 94.3865 215.625 95.383C216.819 96.3795 217.736 97.6249 218.374 99.1196C219.013 100.587 219.333 102.303 219.333 104.268C219.333 105.597 219.208 106.884 218.958 108.129C218.736 109.375 218.513 110.441 218.292 111.327H210.998C210.97 109.444 210.888 107.797 210.749 106.386C210.609 104.974 210.345 103.811 209.957 102.898C209.595 101.957 209.082 101.251 208.415 100.78C207.775 100.31 206.928 100.075 205.872 100.075C204.956 100.075 204.192 100.227 203.581 100.531C202.969 100.808 202.469 101.182 202.081 101.652C201.719 102.123 201.455 102.649 201.288 103.23C201.15 103.811 201.08 104.407 201.08 105.016C201.08 106.344 201.399 107.576 202.038 108.711C202.677 109.846 203.525 111.077 204.581 112.406L212.999 122.247C213.609 122.994 214.319 123.908 215.124 124.986C215.93 126.039 216.694 127.215 217.417 128.515C218.138 129.789 218.75 131.187 219.251 132.708C219.751 134.231 220 135.823 220 137.484C220 139.504 219.68 141.345 219.041 143.005C218.402 144.64 217.458 146.037 216.207 147.2C214.958 148.362 213.416 149.262 211.582 149.898C209.775 150.535 207.706 150.854 205.372 150.854C203.456 150.854 201.65 150.645 199.955 150.23C198.26 149.788 196.788 149.081 195.537 148.113C194.287 147.116 193.3 145.815 192.579 144.21C191.856 142.604 191.495 140.626 191.495 138.273Z" fill="#072331"/>
</g>
<g filter="url(#filter2_i)">
<path d="M148.026 18.6958V66.5264" stroke="#072331" stroke-width="2"/>
</g>
<defs>
<filter id="filter0_i" x="0" y="0" width="136.727" height="71.0517" filterUnits="userSpaceOnUse" color-interpolation-filters="sRGB">
<feFlood flood-opacity="0" result="BackgroundImageFix"/>
<feBlend mode="normal" in="SourceGraphic" in2="BackgroundImageFix" result="shape"/>
<feColorMatrix in="SourceAlpha" type="matrix" values="0 0 0 0 0 0 0 0 0 0 0 0 0 0 0 0 0 0 127 0" result="hardAlpha"/>
<feOffset dy="4"/>
<feGaussianBlur stdDeviation="2"/>
<feComposite in2="hardAlpha" operator="arithmetic" k2="-1" k3="1"/>
<feColorMatrix type="matrix" values="0 0 0 0 0 0 0 0 0 0 0 0 0 0 0 0 0 0 0.25 0"/>
<feBlend mode="normal" in2="shape" result="effect1_innerShadow"/>
</filter>
<filter id="filter1_i" x="5.41638" y="74.7061" width="214.584" height="80.1887" filterUnits="userSpaceOnUse" color-interpolation-filters="sRGB">
<feFlood flood-opacity="0" result="BackgroundImageFix"/>
<feBlend mode="normal" in="SourceGraphic" in2="BackgroundImageFix" result="shape"/>
<feColorMatrix in="SourceAlpha" type="matrix" values="0 0 0 0 0 0 0 0 0 0 0 0 0 0 0 0 0 0 127 0" result="hardAlpha"/>
<feOffset dy="4"/>
<feGaussianBlur stdDeviation="2"/>
<feComposite in2="hardAlpha" operator="arithmetic" k2="-1" k3="1"/>
<feColorMatrix type="matrix" values="0 0 0 0 0 0 0 0 0 0 0 0 0 0 0 0 0 0 0.25 0"/>
<feBlend mode="normal" in2="shape" result="effect1_innerShadow"/>
</filter>
<filter id="filter2_i" x="147.026" y="18.6958" width="2" height="51.8306" filterUnits="userSpaceOnUse" color-interpolation-filters="sRGB">
<feFlood flood-opacity="0" result="BackgroundImageFix"/>
<feBlend mode="normal" in="SourceGraphic" in2="BackgroundImageFix" result="shape"/>
<feColorMatrix in="SourceAlpha" type="matrix" values="0 0 0 0 0 0 0 0 0 0 0 0 0 0 0 0 0 0 127 0" result="hardAlpha"/>
<feOffset dy="4"/>
<feGaussianBlur stdDeviation="2"/>
<feComposite in2="hardAlpha" operator="arithmetic" k2="-1" k3="1"/>
<feColorMatrix type="matrix" values="0 0 0 0 0 0 0 0 0 0 0 0 0 0 0 0 0 0 0.25 0"/>
<feBlend mode="normal" in2="shape" result="effect1_innerShadow"/>
</filter>
</defs>
</svg>
